<?xml version="1.0" encoding="UTF-8" standalone="no"?>
<!DOCTYPE svg PUBLIC "-//W3C//DTD SVG 20010904//EN"
              "http://www.w3.org/TR/2001/REC-SVG-20010904/DTD/svg10.dtd">

<svg xmlns="http://www.w3.org/2000/svg"
     width="21.3611in" height="16.7361in"
     viewBox="0 0 1538 1205">
  <path id="pieni"
        fill="none" stroke="black" stroke-width="1"
        d="M 1046.00,589.48
           C 1058.21,588.33 1062.88,599.65 1063.00,610.00
             1063.15,622.73 1059.22,631.45 1054.28,643.00
             1045.35,663.84 1040.06,673.52 1026.71,692.00
             1021.61,699.04 1011.09,712.82 1002.00,713.75
             993.50,714.62 987.96,706.93 991.48,698.00
             991.48,698.00 1003.69,675.00 1003.69,675.00
             1013.70,656.53 1023.84,637.83 1030.91,618.00
             1030.91,618.00 1033.70,609.00 1033.70,609.00
             1033.70,609.00 1037.04,601.00 1037.04,601.00
             1039.42,594.19 1036.79,591.72 1046.00,589.48 Z
           M 952.02,598.84
           C 960.94,598.28 960.92,608.36 961.00,615.00
             961.28,639.61 957.42,664.37 950.71,688.00
             948.18,696.92 946.86,708.05 937.00,711.61
             921.83,717.10 910.17,704.38 911.66,697.00
             913.06,690.11 919.78,690.64 922.70,688.27
             924.67,686.66 925.28,684.33 926.00,682.00
             926.00,682.00 941.41,621.00 941.41,621.00
             943.51,613.95 945.13,602.38 952.02,598.84 Z
           M 1058.00,737.64
           C 1067.87,737.79 1076.03,746.27 1077.31,756.00
             1077.56,757.94 1076.91,764.91 1076.54,767.00
             1074.09,780.68 1068.24,793.95 1063.69,807.00
             1057.37,825.16 1050.23,851.85 1050.00,871.00
             1049.75,892.64 1056.18,911.84 1065.75,931.00
             1071.23,941.94 1081.70,960.88 1089.29,970.00
             1094.20,975.91 1100.06,981.54 1107.00,985.01
             1125.71,994.37 1148.71,986.26 1165.00,975.66
             1174.13,969.71 1185.57,960.07 1192.83,952.00
             1208.30,934.81 1232.14,893.40 1243.77,872.00
             1243.77,872.00 1267.00,827.00 1267.00,827.00
             1269.12,822.08 1272.18,811.97 1278.02,811.15
             1288.84,809.63 1287.67,820.31 1284.69,827.00
             1284.69,827.00 1274.26,848.00 1274.26,848.00
             1274.26,848.00 1258.75,881.00 1258.75,881.00
             1241.34,915.83 1215.97,961.15 1186.00,986.08
             1169.87,999.49 1148.46,1010.97 1127.00,1011.00
             1127.00,1011.00 1119.00,1011.00 1119.00,1011.00
             1103.95,1010.82 1089.11,1003.93 1077.00,995.41
             1054.86,979.82 1038.61,959.02 1026.60,935.00
             1022.42,926.63 1019.05,917.98 1016.42,909.00
             1015.74,906.66 1013.84,897.94 1012.27,896.74
             1009.09,894.34 1003.23,901.89 1001.43,904.00
             990.55,916.69 984.25,923.26 971.00,933.71
             965.65,937.94 957.55,942.61 951.00,944.56
             913.46,955.74 884.39,910.73 884.00,878.00
             883.92,870.56 883.91,866.33 885.92,859.00
             894.04,829.35 925.28,801.79 955.00,795.01
             969.93,791.61 986.31,790.96 1000.00,799.09
             1005.29,802.23 1011.85,806.97 1010.76,813.98
             1009.97,819.06 1005.60,820.55 1001.00,819.72
             996.81,818.97 992.19,815.12 988.00,813.36
             981.40,810.59 973.53,811.60 967.00,814.06
             942.27,823.41 927.99,850.62 926.18,876.00
             925.97,879.03 926.59,882.01 927.00,885.00
             929.02,899.58 936.97,918.63 955.00,916.80
             962.92,916.00 976.57,904.89 981.71,899.00
             1010.51,866.05 1020.37,820.71 1033.02,780.00
             1036.34,769.33 1042.48,747.07 1051.04,740.43
             1053.56,738.47 1055.01,738.19 1058.00,737.64 Z" />
</svg>
