<?xml version="1.0" encoding="UTF-8" standalone="no"?>
<svg
   width="21.361099in"
   height="16.736099in"
   viewBox="0 0 1538 1205"
   version="1.1"
   id="svg1"
   sodipodi:docname="pieni-a.svg"
   xmlns:inkscape="http://www.inkscape.org/namespaces/inkscape"
   xmlns:sodipodi="http://sodipodi.sourceforge.net/DTD/sodipodi-0.dtd"
   xmlns="http://www.w3.org/2000/svg"
   xmlns:svg="http://www.w3.org/2000/svg">
  <defs
     id="defs1" />
  <sodipodi:namedview
     id="namedview1"
     pagecolor="#ffffff"
     bordercolor="#000000"
     borderopacity="0.25"
     inkscape:showpageshadow="2"
     inkscape:pageopacity="0.0"
     inkscape:pagecheckerboard="0"
     inkscape:deskcolor="#d1d1d1"
     inkscape:document-units="in" />
  <path
     id="pieni"
     fill="none"
     stroke="#000000"
     stroke-width="1"
     d="m 1046,589.48 c 12.21,-1.15 16.88,10.17 17,20.52 0.15,12.73 -3.78,21.45 -8.72,33 -8.93,20.84 -14.22,30.52 -27.57,49 -5.1,7.04 -15.62,20.82 -24.71,21.75 -8.5,0.87 -14.04,-6.82 -10.52,-15.75 0,0 12.21,-23 12.21,-23 10.01,-18.47 20.15,-37.17 27.22,-57 0,0 2.79,-9 2.79,-9 0,0 3.34,-8 3.34,-8 2.38,-6.81 -0.25,-9.28 8.96,-11.52 z m -93.98,9.36 c 8.92,-0.56 8.9,9.52 8.98,16.16 0.28,24.61 -3.58,49.37 -10.29,73 -2.53,8.92 -3.85,20.05 -13.71,23.61 -15.17,5.49 -26.83,-7.23 -25.34,-14.61 1.4,-6.89 8.12,-6.36 11.04,-8.73 1.97,-1.61 2.58,-3.94 3.3,-6.27 0,0 15.41,-61 15.41,-61 2.1,-7.05 3.72,-18.62 10.61,-22.16 z M 1058,737.64 c 9.87,0.15 18.03,8.63 19.31,18.36 0.25,1.94 -0.4,8.91 -0.77,11 -2.45,13.68 -8.3,26.95 -12.85,40 -6.32,18.16 -13.46,44.85 -13.69,64 -0.25,21.64 6.18,40.84 15.75,60 5.48,10.94 15.95,29.88 23.54,39 4.91,5.91 10.77,11.54 17.71,15.01 18.71,9.36 41.71,1.25 58,-9.35 9.13,-5.95 20.57,-15.59 27.83,-23.66 15.47,-17.19 39.31,-58.6 50.94,-80 0,0 23.23,-45 23.23,-45 2.12,-4.92 5.18,-15.03 11.02,-15.85 10.82,-1.52 9.65,9.16 6.67,15.85 0,0 -10.43,21 -10.43,21 0,0 -15.51,33 -15.51,33 -17.41,34.83 -42.78,80.15 -72.75,105.08 -16.13,13.41 -37.54,24.89 -59,24.92 0,0 -8,0 -8,0 -15.05,-0.18 -29.89,-7.07 -42,-15.59 -22.14,-15.59 -38.39,-36.39 -50.4,-60.41 -4.18,-8.37 -7.55,-17.02 -10.18,-26 -0.68,-2.34 -2.58,-11.06 -4.15,-12.26 -3.18,-2.4 -9.04,5.15 -10.84,7.26 -10.88,12.69 -17.18,19.26 -30.43,29.71 -5.35,4.23 -13.45,8.9 -20,10.85 -37.54,11.18 -66.61,-33.83 -67,-66.56 -0.08,-7.44 -0.09,-11.67 1.92,-19 8.12,-29.65 39.36,-57.21 69.08,-63.99 14.93,-3.4 31.31,-4.05 45,4.08 5.29,3.14 11.85,7.88 10.76,14.89 -0.79,5.08 -5.16,6.57 -9.76,5.74 -4.19,-0.75 -8.81,-4.6 -13,-6.36 -6.6,-2.77 -14.47,-1.76 -21,0.7 -24.73,9.35 -39.01,36.56 -40.82,61.94 -0.21,3.03 0.41,6.01 0.82,9 2.02,14.58 9.97,33.63 28,31.8 7.92,-0.8 21.57,-11.91 26.71,-17.8 28.8,-32.95 38.66,-78.29 51.31,-119 3.32,-10.67 9.46,-32.93 18.02,-39.57 2.52,-1.96 3.97,-2.24 6.96,-2.79 z" />
  <path
     style="fill:#000000;stroke-width:0.665225"
     d="m 953.19982,598.85578 c -5.94608,1.3456 -7.74923,8.52514 -9.26438,13.60813 -7.07513,24.45707 -12.38596,49.40787 -19.78599,73.74942 -3.47302,4.40172 -11.78558,4.55908 -12.3924,11.15421 -0.30863,9.29046 9.78593,15.91828 18.36256,15.62239 7.48613,0.0394 14.64578,-4.78192 16.71248,-12.11046 9.15713,-27.84634 14.56209,-57.13445 14.35434,-86.50914 -0.2991,-5.54825 -0.67208,-14.95358 -7.98661,-15.51455 z"
     id="path1" />
  <path
     style="fill:#000000;stroke-width:0.665225"
     d="m 1047.754,589.51924 c -4.476,-0.33276 -8.9955,2.38277 -9.7042,7.03554 -2.3029,8.11292 -5.794,15.9 -8.1786,24.04365 -10.3568,27.15589 -25.7506,51.91671 -38.32093,78.0307 -3.12863,6.20701 0.9417,15.06137 8.32703,15.18064 9.0811,-0.19758 15.3938,-8.10704 20.9855,-14.30532 14.6337,-17.76651 26.0173,-37.9909 34.6764,-59.27739 5.5882,-13.10784 10.8774,-28.56163 4.7722,-42.43019 -2.2194,-4.83993 -7.0737,-8.55021 -12.5574,-8.27763 z"
     id="path2" />
  <path
     style="fill:#000000;stroke-width:0.665225"
     d="m 1058.4106,737.76567 c -9.145,0.55899 -13.6728,9.95698 -16.8207,17.31613 -14.0892,36.39887 -21.0943,75.3872 -38.2448,110.63437 -10.11535,19.91033 -23.28521,40.27367 -44.3207,49.8322 -9.36128,3.49921 -20.20576,-1.50765 -24.82014,-10.1139 -8.98478,-15.22891 -9.63398,-34.54232 -3.39083,-50.86728 6.38701,-18.44184 20.26704,-35.93733 39.80433,-41.48036 6.94643,-1.46827 14.68268,-1.82647 20.82114,2.32043 4.95382,2.12033 10.8272,6.88051 16.2392,3.2781 5.2527,-3.14617 3.3633,-10.70348 -0.5665,-14.14906 -12.77725,-12.27315 -32.16941,-13.92818 -48.76797,-10.34348 -28.79755,6.26123 -54.20501,26.34767 -67.6157,52.49659 -4.77967,9.37283 -7.5975,19.87591 -6.44265,30.44881 -0.28118,11.04586 2.46218,21.89657 7.27598,31.79552 8.18453,17.62232 23.22324,34.33608 43.37343,37.11228 16.90493,2.15422 31.89369,-8.46016 44.04775,-18.86146 10.54726,-8.73113 18.72496,-19.83707 28.52936,-29.28805 1.8764,-1.89135 5.4241,-1.58077 5.8675,1.37978 4.6213,15.43883 9.9129,30.83649 18.1092,44.82348 13.4701,23.41824 32.1191,44.70452 56.04,57.77193 10.9932,5.8574 23.2163,10.0357 35.8377,9.1519 25.3234,0.8347 48.7433,-12.44567 67.0747,-28.87743 24.6086,-22.92197 42.1091,-52.20154 58.0876,-81.48291 12.8149,-23.94361 23.8724,-48.7693 35.7195,-73.18969 1.9319,-4.6677 4.8929,-11.79023 -0.4093,-15.35604 -4.7751,-3.07575 -10.582,0.39233 -12.5483,5.13083 -13.4096,28.84757 -28.6753,56.86039 -44.5296,84.46993 -14.4192,23.72874 -28.651,48.68066 -50.9993,65.91687 -16.1817,13.01708 -36.7418,23.69034 -58.1147,20.62928 -16.365,-2.48332 -27.5751,-16.26691 -36.0138,-29.37151 -13.7544,-22.29519 -26.7744,-46.15413 -30.5256,-72.42612 -0.7794,-14.89914 -0.913,-30.03625 2.8734,-44.56113 4.7568,-23.13054 14.2305,-44.92038 20.8447,-67.53447 2.2965,-9.40246 5.0544,-21.05341 -2.158,-29.07499 -3.5208,-4.16424 -8.6238,-7.61303 -14.2569,-7.53055 z"
     id="path3" />
</svg>
