<?xml version="1.0" encoding="UTF-8" standalone="no"?>
<svg
   width="21.361099in"
   height="16.736099in"
   viewBox="0 0 1538 1205"
   version="1.1"
   id="svg1"
   sodipodi:docname="iso-a.svg"
   xmlns:inkscape="http://www.inkscape.org/namespaces/inkscape"
   xmlns:sodipodi="http://sodipodi.sourceforge.net/DTD/sodipodi-0.dtd"
   xmlns="http://www.w3.org/2000/svg"
   xmlns:svg="http://www.w3.org/2000/svg">
  <defs
     id="defs1" />
  <sodipodi:namedview
     id="namedview1"
     pagecolor="#ffffff"
     bordercolor="#000000"
     borderopacity="0.25"
     inkscape:showpageshadow="2"
     inkscape:pageopacity="0.0"
     inkscape:pagecheckerboard="0"
     inkscape:deskcolor="#d1d1d1"
     inkscape:document-units="in" />
  <path
     id="iso"
     fill="none"
     stroke="#000000"
     stroke-width="1"
     d="m 536.14,226.02 c 6.66,-2.27 10.98,1.64 12.81,7.98 2.94,10.19 2.51,19 -1.04,29 -7.97,22.44 -18.7,43.77 -32.76,63 -7.46,10.21 -18.18,21.96 -29.15,28.39 -6.01,3.53 -15.49,5.95 -20.49,-0.5 -1.38,-1.79 -1.98,-3.63 -1.86,-5.89 0.35,-6.21 5.26,-9.27 9.35,-13.09 5.56,-5.19 10.58,-11.02 15.39,-16.91 17.4,-21.35 23.36,-36.4 33.89,-61 3.42,-7.99 7.84,-25.73 13.86,-30.98 z M 417,233.65 c 14.48,0.65 9.72,18.14 7.64,27.35 0,0 -10.19,26 -10.19,26 0,0 -19.32,48 -19.32,48 -2.94,6.7 -9.5,19.06 -18.13,17.76 -13.92,-2.1 -6.07,-22.55 -3.71,-30.76 0,0 13.48,-36 13.48,-36 0,0 11.65,-31 11.65,-31 4.16,-9.98 6.09,-19.11 18.58,-21.35 z M 543,465 c 0,0 11.69,-22 11.69,-22 8.44,-18.37 16.43,-41.32 33.31,-53.75 8.76,-6.08 30.05,-11.54 36.99,0 4.54,7.15 0.22,15.41 -1.95,22.75 0,0 -4.38,17 -4.38,17 -8.13,25.44 -28.04,79.79 -32.24,103 -4.9,27.12 -5.97,54.66 -8.59,82 0,0 -8.74,112 -8.74,112 0,0 -1.18,25 -1.18,25 -3.64,53.34 -10.83,106.45 -10.91,160 0,0 -1,15 -1,15 -0.44,38.27 -0.97,76.96 2.83,115 2.35,23.51 6.41,53.03 17.66,74 4.32,8.05 11.85,16.18 21.51,16.79 7.56,0.48 21.16,-8.97 25.35,4.21 5.3,16.66 -20.63,25.3 -33.35,24.49 -8.7,-0.56 -13.97,-1.77 -22,-5.21 -47.73,-20.43 -54.94,-71.62 -60.05,-117.28 -3.05,-27.26 -5.91,-54.56 -5.95,-82 0,0 -1,-15 -1,-15 0,0 0,-20 0,-20 0,0 1,-15 1,-15 0.04,-22.45 1.7,-44.67 3.83,-67 0,0 3.34,-41 3.34,-41 0,0 8.11,-77 8.11,-77 0,0 3,-24 3,-24 0.69,-5.28 2.09,-10.78 0.72,-16 0,0 -15.15,36 -15.15,36 0,0 -23.43,59 -23.43,59 -27.41,72.07 -57.29,148.93 -93.2,217 0,0 -30.5,51 -30.5,51 -7.2,10.39 -12.62,18.78 -23.72,25.54 -11.53,7.02 -19.02,7.61 -32,7.46 -8.93,-0.11 -18.03,-2.84 -26,-6.76 -37.19,-18.28 -47.8,-56.29 -53.27,-94.24 0,0 -3.73,-33 -3.73,-33 0,0 0,-9 0,-9 0,0 -1,-12 -1,-12 0,0 0,-18 0,-18 0,0 -0.92,-11 -0.92,-11 0,0 0.92,-11 0.92,-11 0,0 0,-20 0,-20 0,0 1,-10 1,-10 0,0 0,-9 0,-9 0,0 3.85,-36 3.85,-36 5.26,-44.05 17.25,-97.88 31.15,-140 17.13,-51.9 42.76,-115.28 72.31,-161 18.91,-29.26 43.27,-58.51 72.69,-77.66 17.73,-11.54 44.64,-20.72 66,-19.25 13.56,0.93 28.4,6.19 40,13.11 7.9,4.71 11.78,7.22 18.28,13.97 8.14,8.45 14.08,17.27 16.72,28.83 z m 65,-66 c 0,0 -3,0 -3,0 -2.22,2.71 -5.13,5 -6.92,8.01 -3.6,6.08 -7.99,25.75 -8.08,32.99 0,0 1,15 1,15 4.54,-2.72 6.47,-8.26 8.4,-13 2.22,-5.49 9.23,-29.62 9.83,-35 0.34,-3.02 -0.51,-5.13 -1.23,-8 z m -155,26.29 c -22.62,3.74 -34.6,14.83 -49.13,31.71 -21.29,24.73 -37.57,53.9 -52.12,83 -13.87,27.74 -23.64,53.67 -33.42,83 -21.53,64.59 -33.41,121.49 -41.48,189 -5.24,43.79 -10.34,87.91 -10.85,132 0,0 -0.97,12 -0.97,12 0,0 0.97,14 0.97,14 0.02,13.16 1.74,25.99 3.58,39 1.55,11.01 2.96,22 8.2,32 8.27,15.78 28.74,28.37 46.22,19.62 12.33,-6.17 24.61,-25.79 31.8,-37.62 18.12,-29.84 34.15,-60.17 48.5,-92 0,0 30.1,-70 30.1,-70 0,0 44.02,-111 44.02,-111 19.69,-46.92 41.09,-94.55 53.45,-144 4.41,-17.62 10.1,-46.14 10.13,-64 0,0 0,-21 0,-21 0,0 -1.72,-17 -1.72,-17 -3.33,-25.62 -10.89,-46.24 -31.28,-63.41 -6.87,-5.79 -13.38,-10.03 -22,-12.84 -9.66,-3.16 -23.88,-3.42 -34,-2.46 z" />
  <path
     style="fill:#000000;stroke-width:1.33045"
     d="m 609.39024,382.43939 c -20.91988,0.0853 -35.13794,18.63821 -43.32278,35.8234 -8.23662,15.11255 -14.91961,32.40913 -24.6471,46.03305 -5.82374,-19.3543 -21.16888,-34.33629 -38.66108,-43.73545 -21.51483,-12.41781 -48.0733,-15.05871 -71.5022,-6.57812 -45.5456,14.42285 -78.15864,52.65424 -103.42851,91.39796 -36.36866,57.98539 -61.52938,122.39299 -80.83422,187.85589 -26.96209,94.59947 -36.29932,194.97166 -21.86247,292.51035 4.81516,30.32173 16.52225,62.40983 43.51928,79.76873 22.82761,15.9181 58.46233,16.6548 77.60103,-5.5702 20.56462,-25.485 35.71769,-54.8759 51.37303,-83.51691 48.27729,-94.51409 80.63294,-195.98923 122.96789,-293.08875 -0.61551,24.11531 -5.71829,47.90767 -7.34287,71.98066 -7.20122,76.41815 -15.83077,153.20514 -10.29907,230.04802 3.00503,39.37788 5.2839,79.56548 17.7017,117.32808 10.36168,29.1761 36.06399,55.6972 68.22664,57.7861 12.9209,-0.1043 29.94947,-3.9219 34.82086,-17.5452 1.99594,-7.1792 -4.12055,-16.5032 -12.23131,-13.6761 -8.76326,1.498 -19.03735,3.8058 -26.00094,-3.4586 -15.63848,-15.6574 -18.7788,-38.9821 -22.94542,-59.7328 -8.84163,-56.7173 -6.22918,-114.39825 -4.82006,-171.58159 2.7084,-66.13849 10.15773,-132.00286 14.24884,-198.09444 4.64722,-55.48198 6.70462,-111.29396 15.42139,-166.32069 10.36849,-44.23207 28.65979,-86.58722 39.30542,-130.88583 2.57563,-10.34525 -7.74585,-17.85861 -17.28805,-16.74756 z m -2.93375,17.72201 c 4.63265,5.77259 0.0518,14.81715 -1.06376,21.35649 -4.0008,10.90791 -5.50648,23.89329 -13.92979,32.56571 -2.18502,-16.9586 0.21502,-34.9831 8.99353,-49.78533 1.57241,-1.70757 3.5011,-3.96282 6.00002,-4.13687 z m -143.59244,25.20579 c 16.64861,-0.67722 33.69349,3.88716 46.18896,15.59121 27.10862,22.96664 33.34355,60.61582 32.74674,94.23847 -2.18899,66.89317 -28.40806,129.97821 -53.60324,191.11859 -37.35043,90.13918 -69.9806,182.53256 -116.35654,268.60906 -13.20169,22.05758 -24.71707,46.40468 -44.72339,63.23268 -16.37602,12.0655 -39.5202,0.4633 -47.96896,-15.955 -10.34053,-20.3526 -10.63048,-44.25037 -12.27807,-66.77454 -1.97732,-70.63107 6.69992,-141.00196 17.07791,-210.69163 16.44715,-97.92057 45.40824,-195.49962 99.30446,-279.76335 14.02565,-19.92979 28.6165,-41.2623 50.48775,-53.18971 9.1372,-4.48681 19.00618,-6.55826 29.12438,-6.41578 z"
     id="path3" />
  <path
     style="fill:#000000;stroke-width:1.33045"
     d="m 417.05188,233.80578 c -12.34461,0.75909 -16.13866,14.56704 -19.72887,24.08715 -9.43327,25.52426 -20.55265,50.60059 -27.61384,76.90232 -2.16611,6.93349 0.0193,19.05182 9.33913,18.2677 13.63595,-4.57926 16.07744,-21.16956 21.97933,-32.37736 9.1531,-24.17884 21.10167,-47.69281 26.10396,-73.19592 1.38455,-6.64839 -2.63601,-13.93357 -10.07971,-13.68389 z"
     id="path4" />
  <path
     style="fill:#000000;stroke-width:1.33045"
     d="m 539.67934,225.55804 c -9.45556,1.94836 -10.4474,14.46315 -14.07366,21.63539 -11.83668,32.51011 -28.22963,64.04647 -53.31675,88.12932 -4.57226,4.92635 -12.94497,12.7083 -5.97403,19.23436 8.49244,8.51995 20.4742,-0.41942 27.70558,-6.15074 26.27586,-22.15665 41.87822,-54.02858 54.14828,-85.47361 3.05597,-11.48742 5.30307,-26.61784 -3.84584,-35.89876 -1.33395,-0.97556 -2.98495,-1.53422 -4.64358,-1.47596 z"
     id="path5" />
</svg>
