<?xml version="1.0" encoding="UTF-8" standalone="no"?>
<!DOCTYPE svg PUBLIC "-//W3C//DTD SVG 20010904//EN"
              "http://www.w3.org/TR/2001/REC-SVG-20010904/DTD/svg10.dtd">

<svg xmlns="http://www.w3.org/2000/svg"
     width="21.3611in" height="16.7361in"
     viewBox="0 0 1538 1205">
  <path id="iso"
        fill="none" stroke="black" stroke-width="1"
        d="M 536.14,226.02
           C 542.80,223.75 547.12,227.66 548.95,234.00
             551.89,244.19 551.46,253.00 547.91,263.00
             539.94,285.44 529.21,306.77 515.15,326.00
             507.69,336.21 496.97,347.96 486.00,354.39
             479.99,357.92 470.51,360.34 465.51,353.89
             464.13,352.10 463.53,350.26 463.65,348.00
             464.00,341.79 468.91,338.73 473.00,334.91
             478.56,329.72 483.58,323.89 488.39,318.00
             505.79,296.65 511.75,281.60 522.28,257.00
             525.70,249.01 530.12,231.27 536.14,226.02 Z
           M 417.00,233.65
           C 431.48,234.30 426.72,251.79 424.64,261.00
             424.64,261.00 414.45,287.00 414.45,287.00
             414.45,287.00 395.13,335.00 395.13,335.00
             392.19,341.70 385.63,354.06 377.00,352.76
             363.08,350.66 370.93,330.21 373.29,322.00
             373.29,322.00 386.77,286.00 386.77,286.00
             386.77,286.00 398.42,255.00 398.42,255.00
             402.58,245.02 404.51,235.89 417.00,233.65 Z
           M 543.00,465.00
           C 543.00,465.00 554.69,443.00 554.69,443.00
             563.13,424.63 571.12,401.68 588.00,389.25
             596.76,383.17 618.05,377.71 624.99,389.25
             629.53,396.40 625.21,404.66 623.04,412.00
             623.04,412.00 618.66,429.00 618.66,429.00
             610.53,454.44 590.62,508.79 586.42,532.00
             581.52,559.12 580.45,586.66 577.83,614.00
             577.83,614.00 569.09,726.00 569.09,726.00
             569.09,726.00 567.91,751.00 567.91,751.00
             564.27,804.34 557.08,857.45 557.00,911.00
             557.00,911.00 556.00,926.00 556.00,926.00
             555.56,964.27 555.03,1002.96 558.83,1041.00
             561.18,1064.51 565.24,1094.03 576.49,1115.00
             580.81,1123.05 588.34,1131.18 598.00,1131.79
             605.56,1132.27 619.16,1122.82 623.35,1136.00
             628.65,1152.66 602.72,1161.30 590.00,1160.49
             581.30,1159.93 576.03,1158.72 568.00,1155.28
             520.27,1134.85 513.06,1083.66 507.95,1038.00
             504.90,1010.74 502.04,983.44 502.00,956.00
             502.00,956.00 501.00,941.00 501.00,941.00
             501.00,941.00 501.00,921.00 501.00,921.00
             501.00,921.00 502.00,906.00 502.00,906.00
             502.04,883.55 503.70,861.33 505.83,839.00
             505.83,839.00 509.17,798.00 509.17,798.00
             509.17,798.00 517.28,721.00 517.28,721.00
             517.28,721.00 520.28,697.00 520.28,697.00
             520.97,691.72 522.37,686.22 521.00,681.00
             521.00,681.00 505.85,717.00 505.85,717.00
             505.85,717.00 482.42,776.00 482.42,776.00
             455.01,848.07 425.13,924.93 389.22,993.00
             389.22,993.00 358.72,1044.00 358.72,1044.00
             351.52,1054.39 346.10,1062.78 335.00,1069.54
             323.47,1076.56 315.98,1077.15 303.00,1077.00
             294.07,1076.89 284.97,1074.16 277.00,1070.24
             239.81,1051.96 229.20,1013.95 223.73,976.00
             223.73,976.00 220.00,943.00 220.00,943.00
             220.00,943.00 220.00,934.00 220.00,934.00
             220.00,934.00 219.00,922.00 219.00,922.00
             219.00,922.00 219.00,904.00 219.00,904.00
             219.00,904.00 218.08,893.00 218.08,893.00
             218.08,893.00 219.00,882.00 219.00,882.00
             219.00,882.00 219.00,862.00 219.00,862.00
             219.00,862.00 220.00,852.00 220.00,852.00
             220.00,852.00 220.00,843.00 220.00,843.00
             220.00,843.00 223.85,807.00 223.85,807.00
             229.11,762.95 241.10,709.12 255.00,667.00
             272.13,615.10 297.76,551.72 327.31,506.00
             346.22,476.74 370.58,447.49 400.00,428.34
             417.73,416.80 444.64,407.62 466.00,409.09
             479.56,410.02 494.40,415.28 506.00,422.20
             513.90,426.91 517.78,429.42 524.28,436.17
             532.42,444.62 538.36,453.44 541.00,465.00
             541.00,465.00 543.00,465.00 543.00,465.00 Z
           M 608.00,399.00
           C 608.00,399.00 605.00,399.00 605.00,399.00
             602.78,401.71 599.87,404.00 598.08,407.01
             594.48,413.09 590.09,432.76 590.00,440.00
             590.00,440.00 591.00,455.00 591.00,455.00
             595.54,452.28 597.47,446.74 599.40,442.00
             601.62,436.51 608.63,412.38 609.23,407.00
             609.57,403.98 608.72,401.87 608.00,399.00 Z
           M 453.00,425.29
           C 430.38,429.03 418.40,440.12 403.87,457.00
             382.58,481.73 366.30,510.90 351.75,540.00
             337.88,567.74 328.11,593.67 318.33,623.00
             296.80,687.59 284.92,744.49 276.85,812.00
             271.61,855.79 266.51,899.91 266.00,944.00
             266.00,944.00 265.03,956.00 265.03,956.00
             265.03,956.00 266.00,970.00 266.00,970.00
             266.02,983.16 267.74,995.99 269.58,1009.00
             271.13,1020.01 272.54,1031.00 277.78,1041.00
             286.05,1056.78 306.52,1069.37 324.00,1060.62
             336.33,1054.45 348.61,1034.83 355.80,1023.00
             373.92,993.16 389.95,962.83 404.30,931.00
             404.30,931.00 434.40,861.00 434.40,861.00
             434.40,861.00 478.42,750.00 478.42,750.00
             498.11,703.08 519.51,655.45 531.87,606.00
             536.28,588.38 541.97,559.86 542.00,542.00
             542.00,542.00 542.00,521.00 542.00,521.00
             542.00,521.00 540.28,504.00 540.28,504.00
             536.95,478.38 529.39,457.76 509.00,440.59
             502.13,434.80 495.62,430.56 487.00,427.75
             477.34,424.59 463.12,424.33 453.00,425.29 Z" />
</svg>
